<?xml version="1.0" encoding="iso-8859-1"?>
<!-- Uploaded to: SVG Repo, www.svgrepo.com, Generator: SVG Repo Mixer Tools -->
<svg fill="#000000" height="800px" width="800px" version="1.1" id="Layer_1" xmlns="http://www.w3.org/2000/svg" xmlns:xlink="http://www.w3.org/1999/xlink" 
	 viewBox="0 0 512 512" xml:space="preserve">
<g>
	<g>
		<g>
			<path d="M119.446,179.2h85.333c4.71,0,8.533-3.823,8.533-8.533V51.2c0-4.71-3.823-8.533-8.533-8.533h-85.333
				c-4.71,0-8.533,3.823-8.533,8.533v119.467C110.913,175.377,114.736,179.2,119.446,179.2z M127.98,59.733h68.267v102.4H127.98
				V59.733z"/>
			<path d="M472.01,222.302c-4.514-1.502-9.301,0.93-10.786,5.402c-9.455,28.356-25.626,42.394-51.644,44.851v-85.359
				c33.681-2.662,56.021-21.077,67.823-56.499c1.493-4.463-0.922-9.301-5.393-10.795c-4.514-1.502-9.301,0.93-10.786,5.402
				c-9.455,28.356-25.626,42.394-51.644,44.851V83.763c9.907-3.541,17.067-12.919,17.067-24.03c0-14.114-11.486-25.6-25.6-25.6
				c-14.114,0-25.6,11.486-25.6,25.6c0,11.11,7.159,20.489,17.067,24.021v86.4c-26.018-2.458-42.189-16.495-51.644-44.851
				c-1.485-4.471-6.289-6.903-10.786-5.402c-4.471,1.493-6.886,6.332-5.393,10.795c11.802,35.422,34.142,53.837,67.823,56.499
				v85.359c-26.018-2.458-42.189-16.495-51.644-44.851c-1.485-4.471-6.289-6.904-10.786-5.402
				c-4.471,1.493-6.886,6.332-5.393,10.795c11.802,35.422,34.142,53.837,67.823,56.499v205.338h-25.6
				c-4.719,0-8.533,3.823-8.533,8.533s3.814,8.533,8.533,8.533h68.267c4.719,0,8.533-3.823,8.533-8.533s-3.814-8.533-8.533-8.533
				h-25.6V289.596c33.681-2.662,56.021-21.077,67.823-56.499C478.896,228.634,476.481,223.795,472.01,222.302z M401.046,68.267
				c-4.71,0-8.533-3.831-8.533-8.533s3.823-8.533,8.533-8.533c4.71,0,8.533,3.831,8.533,8.533S405.757,68.267,401.046,68.267z"/>
			<path d="M68.246,196.267c0,14.114,11.486,25.6,25.6,25.6c7.279,0,14.182-3.183,18.987-8.533h98.56
				c4.804,5.35,11.716,8.533,18.987,8.533c14.114,0,25.6-11.486,25.6-25.6c0-7.279-3.183-14.182-8.533-18.987V44.587
				c5.35-4.804,8.533-11.708,8.533-18.987c0-14.114-11.486-25.6-25.6-25.6c-7.27,0-14.182,3.183-18.987,8.533h-98.56
				C108.029,3.183,101.125,0,93.846,0c-14.114,0-25.6,11.486-25.6,25.6c0,7.279,3.183,14.182,8.533,18.987V177.28
				C71.429,182.084,68.246,188.988,68.246,196.267z M89.605,32.922c-2.688-1.562-4.292-4.301-4.292-7.322
				c0-4.702,3.831-8.533,8.533-8.533c3.021,0,5.76,1.604,7.322,4.292c1.536,2.628,4.344,4.241,7.381,4.241h107.128
				c3.038,0,5.845-1.613,7.381-4.241c1.562-2.688,4.301-4.292,7.322-4.292c4.702,0,8.533,3.831,8.533,8.533
				c0,3.021-1.604,5.76-4.292,7.322c-2.628,1.536-4.241,4.343-4.241,7.381v141.261c0,3.038,1.613,5.845,4.241,7.381
				c2.688,1.562,4.292,4.301,4.292,7.322c0,4.702-3.831,8.533-8.533,8.533c-3.021,0-5.76-1.604-7.322-4.292
				c-1.536-2.628-4.344-4.241-7.381-4.241H108.549c-3.038,0-5.845,1.613-7.381,4.241c-1.562,2.688-4.301,4.292-7.322,4.292
				c-4.702,0-8.533-3.831-8.533-8.533c0-3.021,1.604-5.76,4.292-7.322c2.628-1.536,4.241-4.343,4.241-7.381V40.303
				C93.846,37.265,92.234,34.458,89.605,32.922z"/>
			<path d="M247.446,341.333H230.38c-6.554,0-12.535,2.475-17.067,6.536c-4.531-4.062-10.513-6.536-17.067-6.536H179.18
				c-6.554,0-12.535,2.475-17.067,6.536c-4.531-4.062-10.513-6.536-17.067-6.536H127.98c-6.554,0-12.535,2.475-17.067,6.536
				c-4.531-4.062-10.513-6.536-17.067-6.536H76.78c-23.526,0-42.667,19.14-42.624,43.52l8.533,85.333
				c0.435,4.361,4.104,7.68,8.491,7.68v25.6c0,4.71,3.823,8.533,8.533,8.533s8.533-3.823,8.533-8.533v-25.6H230.38
				c4.71,0,8.533-3.823,8.533-8.533s-3.823-8.533-8.533-8.533H58.894L51.18,384c0-14.114,11.486-25.6,25.6-25.6h17.067
				c4.702,0,8.533,3.831,8.533,8.533c0,4.71,3.823,8.533,8.533,8.533c4.71,0,8.533-3.823,8.533-8.533
				c0-4.702,3.831-8.533,8.533-8.533h17.067c4.702,0,8.533,3.831,8.533,8.533c0,4.71,3.823,8.533,8.533,8.533
				c4.71,0,8.533-3.823,8.533-8.533c0-4.702,3.831-8.533,8.533-8.533h17.067c4.702,0,8.533,3.831,8.533,8.533
				c0,4.71,3.823,8.533,8.533,8.533c4.71,0,8.533-3.823,8.533-8.533c0-4.702,3.831-8.533,8.533-8.533h17.067
				c14.114,0,25.6,11.486,25.643,24.747l-7.765,77.653h-0.811c-4.71,0-8.533,3.823-8.533,8.533v34.133
				c0,4.71,3.823,8.533,8.533,8.533c4.719,0,8.533-3.823,8.533-8.533v-25.6c4.386,0,8.055-3.319,8.491-7.68L290.113,384
				C290.113,360.474,270.973,341.333,247.446,341.333z"/>
		</g>
	</g>
</g>
</svg>